<svg width="84" height="97" viewBox="0 0 84 97" fill="none" xmlns="http://www.w3.org/2000/svg">
	<title>
		The Nord.js icon is a hexagon with lines
	</title>
	<path d="M27.9 8 0 24.4v12.5l27.9-16.2 27.9 16.2V24.3L27.9 8ZM55.3 89 27.4 72.9V60.3l28 16.2 27.8-16.2v12.5L55.3 89.1Z" fill="#FF4757" />
	<path d="M0 40.2 27.9 24l10.8 6.3-27.9 16.2v32.4L0 72.6V40.2ZM69.5 16.2 41.6 0 30.8 6.3l27.9 16.2v32.4l10.8-6.3V16.2Z" fill="#FF4757" />
	<path d="M13.8 80.8V48.4L24.6 42v32.4l27.9 16.2L41.7 97l-28-16.2ZM83.2 56.9V24.5l-10.8-6.3v32.4l-28 16.2 11 6.3L83.1 57Z" fill="#FF4757" />
</svg>
