<svg width="368" height="97" viewBox="0 0 368 97" fill="none" xmlns="http://www.w3.org/2000/svg">
	<title>
		Nord.js
	</title>
	<style>
		path { fill: #300004; }
		@media (prefers-color-scheme: dark) { path { fill: #ffffff; } }
	</style>
	<path d="M27.9 8 0 24.4v12.5l27.9-16.2 27.9 16.2V24.3L27.9 8ZM55.3 89 27.4 72.9V60.3l28 16.2 27.8-16.2v12.5L55.3 89.1Z" fill="#FF4757" />
	<path d="M0 40.2 27.9 24l10.8 6.3-27.9 16.2v32.4L0 72.6V40.2ZM69.5 16.2 41.6 0 30.8 6.3l27.9 16.2v32.4l10.8-6.3V16.2Z" fill="#FF4757" />
	<path d="M13.8 80.8V48.4L24.6 42v32.4l27.9 16.2L41.7 97l-28-16.2ZM83.2 56.9V24.5l-10.8-6.3v32.4l-28 16.2 11 6.3L83.1 57Z" fill="#FF4757" />
	<path d="M105.6 73.2V24.6h7.8a186.9 186.9 0 0 1 20 32.4l-.7-14.5V24.6h8.2v48.6h-7.8c-3-6-6.2-12-9.5-18-3.2-6.2-6.7-12-10.4-17.3l.6 16.7v18.6h-8.2ZM188.7 43.8V54c0 6.2-1.6 11-4.6 14.6-3.1 3.5-7.7 5.3-13.6 5.3-6 0-10.6-1.8-13.7-5.3-3-3.6-4.5-8.4-4.5-14.6V43.8c0-6.2 1.5-11 4.5-14.6 3.1-3.5 7.7-5.3 13.7-5.3 6 0 10.5 1.8 13.6 5.3 3 3.5 4.6 8.4 4.6 14.6Zm-8.8 0c0-4-.8-6.9-2.3-8.8-1.5-2-3.9-3-7.1-3-3.3 0-5.6 1-7.2 3-1.5 2-2.2 4.9-2.2 8.8V54c0 3.9.7 6.8 2.2 8.8 1.6 2 4 3 7.2 3s5.6-1 7.1-3 2.3-5 2.3-8.8V43.8ZM208.6 55.3v17.9H200V24.6h16.2c5 0 8.7 1.3 11.3 3.8a13 13 0 0 1 4 10v3c0 2.8-.6 5.3-1.8 7.4-1.2 2-2.9 3.6-5.1 4.7 3.9 6.7 7.2 13.2 10 19.7h-9.8c-2.4-6-5.2-12-8.5-17.9h-7.7Zm7.6-22.8h-7.6v15h7.6c2.1 0 3.7-.5 4.8-1.6 1.2-1 1.7-2.6 1.7-4.4v-3c0-1.9-.5-3.3-1.7-4.4-1-1-2.7-1.6-4.8-1.6ZM243.5 73.2V24.6H260c5.8 0 10.2 1.7 13.3 4.9 3 3.2 4.5 8 4.5 14.3V54c0 6.3-1.5 11-4.5 14.3-3 3.2-7.5 4.9-13.3 4.9h-16.5Zm16.1-40.4h-7.5V65h7.5c3.4 0 5.8-.9 7.2-2.5 1.5-1.7 2.2-4.5 2.2-8.5V43.8c0-4-.7-6.8-2.2-8.5-1.4-1.6-3.8-2.5-7.2-2.5ZM294.3 73.2h-8.6v-8.5h8.6v8.5ZM303.7 73.9v-8.2c3.8 0 6.6-.7 8.3-2.2 1.8-1.4 2.7-4 2.7-7.7V24.6h8.5v31.2c0 3.7-.5 6.9-1.7 9.6a12.4 12.4 0 0 1-6 6.3 26 26 0 0 1-11.8 2.2ZM350.2 66c5.5 0 8.3-2 8.3-6.2 0-1.6-.4-3-1.3-3.9a10 10 0 0 0-4.6-2.5l-5.8-2c-7-2.2-10.5-6.8-10.5-13.7 0-4 1.2-7.3 3.7-9.9 2.5-2.6 6.5-3.9 11.8-3.9a36.7 36.7 0 0 1 13.6 3.1l-2.6 7.4c-2.3-.9-4.3-1.5-5.9-2-1.5-.3-3.2-.6-4.8-.6-2.2 0-4 .4-5.2 1.3-1.3.7-1.9 2.1-1.9 4.2 0 1.5.4 2.8 1.3 3.8.9.9 2.4 1.7 4.4 2.4l5.9 1.9c3.5 1.2 6.1 3 7.9 5.2 1.8 2.3 2.7 5.2 2.7 9a14 14 0 0 1-4 10.4c-2.8 2.6-7 3.9-12.8 3.9a34.5 34.5 0 0 1-15.2-3.7L338 63c2.6 1.1 4.9 2 6.7 2.4 2 .4 3.8.7 5.6.7Z" fill="currentColor" />
</svg>
